<?xml version="1.0" standalone="no"?>
<!DOCTYPE svg PUBLIC "-//W3C//DTD SVG 20010904//EN"
 "http://www.w3.org/TR/2001/REC-SVG-20010904/DTD/svg10.dtd">
<svg version="1.0" xmlns="http://www.w3.org/2000/svg"
 width="260.000000pt" height="260.000000pt" viewBox="0 0 260.000000 260.000000"
 preserveAspectRatio="xMidYMid meet">
<metadata>
Created by potrace 1.11, written by Peter Selinger 2001-2013
</metadata>
<g transform="translate(0.000000,260.000000) scale(0.100000,-0.100000)"
fill="#000000" stroke="none">
<path d="M625 2553 c-242 -53 -432 -219 -509 -445 -26 -78 -29 -98 -32 -218
-4 -172 25 -304 105 -463 90 -178 221 -324 546 -608 173 -151 266 -242 335
-324 46 -56 186 -270 220 -338 24 -46 38 -64 43 -55 4 7 38 64 75 126 70 116
171 259 232 326 72 79 100 105 320 296 385 334 526 526 595 810 20 78 26 250
13 345 -17 128 -90 269 -188 364 -241 233 -595 254 -841 50 -84 -71 -166 -188
-204 -294 -7 -19 -8 -18 -15 5 -21 75 -94 186 -166 257 -117 113 -242 165
-404 168 -58 2 -114 1 -125 -2z m1445 -145 c7 -18 19 -46 25 -63 28 -67 137
-385 141 -411 13 -88 -105 -163 -198 -126 -99 40 -63 188 51 207 23 4 41 8 41
10 0 3 -63 183 -85 242 -4 11 -166 -85 -258 -152 l-27 -20 67 -180 c36 -99 66
-196 67 -216 0 -45 -32 -91 -78 -113 -54 -26 -108 -17 -153 26 -59 56 7 172
102 180 14 1 25 6 25 9 0 4 -29 86 -65 183 -36 96 -65 181 -65 188 0 11 375
268 391 268 4 0 12 -15 19 -32z m-1426 -304 c30 -14 76 -44 102 -66 70 -58
114 -76 231 -94 60 -9 150 -42 218 -80 35 -18 69 -34 76 -34 7 0 62 -51 123
-113 61 -62 134 -131 161 -154 45 -37 49 -43 38 -62 -8 -12 -9 -22 -3 -26 18
-11 10 -44 -14 -57 l-24 -13 19 -40 c11 -22 47 -78 82 -125 122 -165 192 -295
180 -339 -7 -26 -55 -41 -113 -36 -39 3 -51 10 -91 53 -25 27 -84 108 -131
178 -47 71 -99 142 -114 158 -33 33 -111 71 -165 81 l-37 7 -36 -109 c-21 -62
-36 -128 -36 -155 0 -41 4 -50 35 -76 69 -56 117 -74 240 -87 109 -12 109 -35
0 -41 -37 -2 -71 -6 -76 -9 -5 -3 10 -42 33 -86 63 -122 30 -116 -53 11 -48
73 -107 138 -139 155 -23 12 -27 11 -37 -4 -17 -28 -70 -25 -98 5 -13 14 -25
35 -27 46 -2 15 -20 27 -64 43 -33 12 -80 33 -104 45 l-43 22 -17 -21 c-10
-15 -22 -20 -33 -15 -9 3 -17 2 -17 -3 0 -6 -11 -15 -25 -21 -43 -20 -65 28
-55 122 1 10 -15 33 -35 52 -56 51 -27 73 44 34 l36 -21 87 39 88 39 -61 49
c-33 27 -88 70 -122 96 -133 100 -189 184 -196 294 -1 15 -101 114 -115 114
-6 0 -28 -5 -49 -11 -42 -11 -64 -4 -45 15 7 7 41 31 75 54 34 23 64 46 67 50
12 19 -48 82 -93 98 -101 38 -97 58 12 50 45 -4 96 -3 112 2 17 5 58 10 92 11
50 2 73 -3 117 -25z"/>
<path d="M1006 1319 c-15 -12 -64 -34 -109 -50 -116 -41 -157 -60 -157 -74 0
-20 42 -52 119 -90 84 -42 137 -53 164 -33 16 13 87 201 87 233 0 15 -37 35
-64 35 -7 0 -25 -10 -40 -21z"/>
</g>
</svg>
