<svg xmlns="http://www.w3.org/2000/svg" viewBox="0 0 212.42 48"><defs><style>.cls-1{fill:#231f20;}.cls-2{fill:#7ac143;}.cls-3{fill:#010101;}.cls-4{fill:#fff;}</style></defs><title>Asset 34</title><g id="Layer_2" data-name="Layer 2"><g id="Layer_1-2" data-name="Layer 1"><path class="cls-1" d="M79.05,15.9c-3.06,0-6.57,1-6.57,3.72a5,5,0,0,0,1.13,2.92c0-2.65,2.38-3.78,5.44-3.78s3.65,1.17,3.65,2.68C81.41,24.39,72.35,22.5,72,28.63,70.52,31,64.9,31.11,61.6,31.11c-3.61,0-6.15-1.37-6.15-5.64V17.69c0-4.26,2.54-5.6,6.15-5.6s8,1.16,8.43,4.16a5,5,0,0,0,.8-2.45C70.83,10.33,66.25,9,61.6,9c-5.26,0-9.9,2.13-9.9,8.19V26c0,6,4.64,8.18,9.9,8.18,3.75,0,9.55-.25,11.19-2.41,1.18,1.76,3.53,2.41,5.88,2.41,1.93,0,3.51-.62,5.16-.62a5.91,5.91,0,0,1,2.48.49V21.62C86.31,18,83.76,15.9,79.05,15.9ZM82.8,30.73a8.09,8.09,0,0,1-3.61.79c-2.48,0-3.61-1.06-3.61-2.58,0-3.57,6.5-2.34,7.22-4.4Z"/><path class="cls-1" d="M113.4,15.9c-5.34,0-7.85,2.17-7.85,5.78v7.37c-1.85,1.4-6.24,2.23-8.57,2.23-3,0-4.27-1.17-4.27-3.61V22.41c0-2.65,1.48-3.62,4.34-3.62,2.3,0,4.61,1.21,4.61,3.82a5.32,5.32,0,0,0,1.14-3c0-2.68-3.38-3.75-6.27-3.75-4.64,0-7.43,2.17-7.43,5.78v6.71c0,3.65,2.89,5.78,7.53,5.78,2.87,0,7.92-.86,9.9-2.45,1.19,1.57,3.44,2.45,6.84,2.45,5.36,0,7.87-2.16,7.87-5.78V21.68C121.27,18.07,118.76,15.9,113.4,15.9Zm4.26,12c0,2.23-.72,3.54-4.26,3.54s-4.24-1.33-4.24-3.56V22.2c0-2.24.72-3.54,4.24-3.54s4.26,1.3,4.26,3.54Z"/><path class="cls-1" d="M127.66,40v2.27c-.1,0-3.61.1-3.61-2.34V16a5.24,5.24,0,0,0,2.27.55c1.62,0,3.13-.62,4.89-.62,4.81,0,7.5,2.07,7.5,5.72V28.5c0,3.54-3,5.67-6.47,5.67s-4.89-1.61-4.89-1.61a9.45,9.45,0,0,1,.31,2.54Zm0-11.66c0,1.82,2.07,3.09,4.13,3.09,1.9,0,3.31-1,3.31-3.44V22.13c0-2.34-.93-3.47-4.13-3.47a8.47,8.47,0,0,0-3.31.58Z"/><path class="cls-1" d="M145.73,34s-3.57,0-3.57-2V7.82c.34,0,3.61-.07,3.61,2.3v4.79a10,10,0,0,1-.31,2.61s1.41-1.62,4.88-1.62,6.48,2,6.48,5.68V34s-3.66,0-3.66-2V22.1c0-2.41-1.41-3.44-3.3-3.44-2.07,0-4.13,1.27-4.13,3.09Z"/><path class="cls-1" d="M175.26,28.39c0,3.62-2.51,5.78-7.88,5.78s-7.84-2.16-7.84-5.78V21.68c0-3.61,2.51-5.78,7.84-5.78s7.88,2.17,7.88,5.78Zm-3.61-6.19c0-2.24-.72-3.54-4.27-3.54s-4.22,1.34-4.22,3.54v5.68c0,2.23.73,3.54,4.23,3.54s4.27-1.31,4.27-3.54Z"/><path class="cls-1" d="M189.63,21.82c0-2-1-3.09-3.75-3.09a11.47,11.47,0,0,0-3.68.58V34s-3.61,0-3.61-2V16a5.94,5.94,0,0,0,2.65.66c1.68,0,3.23-.73,5.12-.73,3.34,0,6.88,1.14,6.88,5.41V34s-3.61-.06-3.61-2Z"/><path class="cls-1" d="M197.41,22.82c-.24-2.24-.44-4.51-.72-6.74,0,0,2.82,0,3.44,1.54a29.37,29.37,0,0,1,1,5.89,9.45,9.45,0,0,0,3.4,6.23A9.58,9.58,0,0,0,208,23.51l.58-4.44c.38-3,3.31-3,3.86-3-.28,2.23-.49,4.5-.73,6.74a14.19,14.19,0,0,1-5.26,9.36l-1.34,1c-2.27,1.76-4,3.17-4,5.51a7,7,0,0,0,.75,3.06,3,3,0,0,1-1.31.34c-1.3,0-3-.82-3-3.65,0-3.09,2.24-5,4.78-6.88C200.3,30.49,197.86,27.05,197.41,22.82Z"/><path class="cls-2" d="M41,10.76c.36-1.68-1.38-4-1.38-4v.55a31.57,31.57,0,0,1-1.11,3.24,2,2,0,0,0,.36,2.31l.52-.23C39.89,12.38,40.66,12.43,41,10.76Zm-1.93,1.48a11.59,11.59,0,0,0,.78-3.86L40,9.88A4,4,0,0,1,39.08,12.24Z"/><path class="cls-2" d="M14.16,17.25C12.66,12.61,6.29,9.8,6.29,9.8l.65,1.36c.43,1,2.07,9.65,2.07,9.65.65,4.49,3.7,5,3.7,5l.7-1.41C14.16,23,15.65,21.88,14.16,17.25ZM12.34,24c-.28-4.07-3.51-10.61-3.51-10.61l2.25,3.38A14.17,14.17,0,0,1,12.34,24Z"/><path class="cls-2" d="M20,7.14c.62-.92.16-2.75.16-2.75l-.79.81c-.3.31-.91,1-.91,1a1.45,1.45,0,0,0-.28,1.64h.37A1.28,1.28,0,0,0,20,7.14Zm-1.54.41a5.84,5.84,0,0,0,1.24-2.16l-.18.94A3.06,3.06,0,0,1,18.49,7.55Z"/><path class="cls-2" d="M5.28,20.73l.92-.1a3.28,3.28,0,0,0-1.4-3.57S.93,13.91.56,13.41l-.49-.75s-.52,4.72,1.36,6.8S4.36,20.83,5.28,20.73ZM2.16,17.4l-1-2.25S3.42,18.79,5.39,20A6.52,6.52,0,0,1,2.16,17.4Z"/><path class="cls-2" d="M3.45,13.44l.52.24a2,2,0,0,0,.37-2.32S3.27,8.51,3.23,8.12V7.58s-1.73,2.33-1.38,4S2.93,13.21,3.45,13.44Zm-.63-2.73L3,9.21a11.35,11.35,0,0,0,.78,3.86A4,4,0,0,1,2.82,10.71Z"/><path class="cls-2" d="M6.44,8l.38.68A2.76,2.76,0,0,0,9.16,6.45s1.19-4.07,1.46-4.53L11,1.3S7.16,2.45,6.16,4.61,6.05,7.35,6.44,8ZM8,4.42,9.41,2.89s-2.07,3-2.33,4.94A5.45,5.45,0,0,1,8,4.46Z"/><path class="cls-2" d="M13.16,1.24l-.57.54a2.78,2.78,0,0,0,2.79,1.68s4.23.11,4.74.26l.72.25S18.69.52,16.35.1,13.67.69,13.16,1.24Zm3.85.6,1.84,1s-3.44-1.25-5.37-1a5.45,5.45,0,0,1,3.48,0Z"/><path class="cls-2" d="M21.71,15.55c1.7-2.91-.08-8.33-.08-8.33l-.38,1c-.31.69-4.1,5.35-4.1,5.35a3.93,3.93,0,0,0-.77,4.54l1.11-.1C18.6,17.89,20,18.47,21.71,15.55Zm-4.55,1.57c2-1.87,3.87-6.72,3.87-6.72l-.65,2.89A7.89,7.89,0,0,1,17.16,17.12Z"/><path class="cls-2" d="M19.78,28.64c1.25-2.64.28-8.25.28-8.25L19,22.58c-.22.61-3.31,4.69-3.31,4.69a3.4,3.4,0,0,0-.31,4l1-.18C17.28,30.89,18.53,31.29,19.78,28.64ZM16,30.33a29.71,29.71,0,0,0,3.46-5.95l-.71,2.8A4.93,4.93,0,0,1,16,30.33Z"/><path class="cls-2" d="M9.61,26C7.9,24,.88,21.92.88,21.92l.28.68c.78,3.24.87,4.11,3.42,6.11s5.94-.39,5.94-.39l-.13-.44A4.73,4.73,0,0,0,9.61,26ZM7.7,27.62c-2-.51-4-2.59-4.87-3.69a4.81,4.81,0,0,1-.52-.67h0a3.91,3.91,0,0,0,.52.67,16,16,0,0,0,6.33,3.85Z"/><path class="cls-2" d="M13.93,31.92a8.31,8.31,0,0,0-2.28-.14s-3.24,0-4.68-1.36c0,0,2.07,7.25,9.42,5.57l1.32-.57A5.1,5.1,0,0,0,13.93,31.92Zm2.43,3a4.79,4.79,0,0,0-3.15-1,6.54,6.54,0,0,1-4.32-1.54c.9.88,3.86,1.08,3.86,1.08,3.05-.11,3.61,1.42,3.61,1.42Z"/><path class="cls-2" d="M18.53,42.78A7.48,7.48,0,0,0,20,44.25s2.18,2,2.32,3.75c0,0,3-6.13-3-9.45l-1.24-.42A4.56,4.56,0,0,0,18.53,42.78Zm.16-3.47a4.26,4.26,0,0,0,1.54,2.56,6,6,0,0,1,2,3.64c-.07-1.13-1.94-3.07-1.94-3.07-2.11-1.77-1.56-3.13-1.56-3.13Z"/><path class="cls-2" d="M27.39,37.35l-.92.32c-4.47,2.49-2.22,7.08-2.22,7.08.1-1.34,1.74-2.81,1.74-2.81a5.92,5.92,0,0,0,1.08-1.1A3.47,3.47,0,0,0,27.39,37.35Zm-.44.88s.41,1-1.17,2.36c0,0-1.4,1.44-1.46,2.3a4.47,4.47,0,0,1,1.48-2.74A3.25,3.25,0,0,0,27,38.23Z"/><path class="cls-2" d="M24.66,34.93c-.74-2.6-4.87-4.59-4.87-4.59l.36.78c.23.56.83,5.34.83,5.34a3.15,3.15,0,0,0,2.19,3l.56-.7C24.28,38,25.39,37.53,24.66,34.93ZM23,38.42c.05-2.21-1.74-6-1.74-6l1.32,2A6.33,6.33,0,0,1,23,38.42Z"/><path class="cls-2" d="M32.56,23.72l.71,1.41s3-.52,3.7-5c0,0,1.64-8.67,2.06-9.65l.66-1.36s-6.37,2.81-7.87,7.45S31.86,22.32,32.56,23.72Zm2.32-7.66,2.28-3.37s-3.23,6.54-3.51,10.61A14.19,14.19,0,0,1,34.88,16.06Z"/><path class="cls-2" d="M15.16,10.25a12.81,12.81,0,0,1,2,.45s-.8-2.92-2.31-4c0,0-1.28-1.11-1.92-1.59L11.37,3.86s-.35,3.42,1,4.92A3.47,3.47,0,0,0,15.16,10.25ZM13,7.18l-.58-1.64s1.37,2.74,2.8,3.57A5.26,5.26,0,0,1,13,7.18Z"/><path class="cls-2" d="M27,8.59h.44a1.77,1.77,0,0,0-.33-2s-.72-.84-1.09-1.21l-.93-1s-.55,2.18.19,3.28A1.53,1.53,0,0,0,27,8.59ZM25.89,6.77l-.21-1.12a6.8,6.8,0,0,0,1.48,2.58A3.39,3.39,0,0,1,25.89,6.77Z"/><path class="cls-2" d="M26.16,29.27h.44a1.75,1.75,0,0,0-.33-2s-.72-.84-1.08-1.21l-.94-1s-.55,2.18.19,3.28A1.53,1.53,0,0,0,26.16,29.27ZM25,27.45l-.22-1.12a6.78,6.78,0,0,0,1.47,2.58A3.42,3.42,0,0,1,25,27.45Z"/><path class="cls-2" d="M43.4,19.46c1.89-2.08,1.36-6.8,1.36-6.8l-.48.75c-.38.5-4.25,3.65-4.25,3.65a3.28,3.28,0,0,0-1.4,3.57l.92.1C40.47,20.83,41.52,21.54,43.4,19.46Zm-4,.5c2-1.17,4.29-4.81,4.29-4.81l-1,2.25A6.56,6.56,0,0,1,39.44,20Z"/><path class="cls-2" d="M38.69,4.61c-1-2.16-4.86-3.31-4.86-3.31l.42.62c.28.46,1.45,4.53,1.45,4.53A2.76,2.76,0,0,0,38,8.72L38.41,8C38.8,7.35,39.69,6.77,38.69,4.61Zm-.92,3.26c-.26-1.93-2.34-4.94-2.34-4.94l1.42,1.53A5.55,5.55,0,0,1,37.77,7.87Z"/><path class="cls-2" d="M29.56.18c-2.38,0-5.1,2.93-5.1,2.93L25.21,3c.52,0,4.7.67,4.7.67A2.78,2.78,0,0,0,33,2.57l-.45-.65C32.07,1.28,31.94.22,29.56.18Zm2.53,2.25c-1.85-.61-5.46-.06-5.46-.06l2-.6A5.56,5.56,0,0,1,32.09,2.43Z"/><path class="cls-2" d="M29.21,16.5l.73-.19a2.67,2.67,0,0,0-1.56-2.69,44.18,44.18,0,0,1-3.85-2.4l-.48-.54S24.21,14.52,26,16,28.48,16.69,29.21,16.5Zm-2.94-2.28-1.11-1.67s2.3,2.63,4,3.32A5.28,5.28,0,0,1,26.27,14.22Z"/><path class="cls-2" d="M35.1,27.84l-.13.44s3.38,2.39,5.94.39,2.64-2.87,3.42-6.11l.29-.68S37.59,24,35.89,26A4.5,4.5,0,0,0,35.1,27.84Zm1.19-.06s4.1-1.26,6.38-3.89c.29-.36.47-.61.51-.67h0c-.16.23-.33.46-.51.67-.9,1.1-2.82,3.18-4.87,3.69Z"/><path class="cls-2" d="M28.8,35l1.2.51c6.65,1.52,8.52-5,8.52-5-1.3,1.24-4.23,1.23-4.23,1.23a8,8,0,0,0-2.07.13A4.55,4.55,0,0,0,28.8,35ZM30,34.51s.51-1.37,3.26-1.28c0,0,2.69-.18,3.5-1a5.92,5.92,0,0,1-3.9,1.39,4.37,4.37,0,0,0-2.86.87Z"/><path class="cls-3" d="M35,28.67a3,3,0,0,1-.16-.31l-.32-.61a19.37,19.37,0,0,0-1-1.73c-.39-.61-1-1.49-1.29-1.87l-1-1.42a9.4,9.4,0,0,1-.89-1.45,8.48,8.48,0,0,1-.34-.78l-.06-.13h0a1.2,1.2,0,0,0,.64-.16.72.72,0,0,0,.3-.55,1,1,0,0,0-.17-.5,1.57,1.57,0,0,0-.2-.25.44.44,0,0,0,.34-.22.41.41,0,0,0,0-.4A2.28,2.28,0,0,0,30,17.5L29.42,17l-.35-.28L28.24,16l-.15-.17a16,16,0,0,1-1.15-1.22L25.1,12.78v-.27H25A4,4,0,0,1,23.49,12c-.55-.33-1.37-.75-1.8-.95A9.81,9.81,0,0,0,20,10.41c-.53-.14-1.46-.33-2.07-.44a10.87,10.87,0,0,1-1.84-.49,5.2,5.2,0,0,1-1.21-.78,13.06,13.06,0,0,0-1.07-.9,12.81,12.81,0,0,0-1.3-.74,4.87,4.87,0,0,0-1.22-.41,11.22,11.22,0,0,0-1.16,0l-1.21.12A2.35,2.35,0,0,0,8.15,7,5,5,0,0,1,7.05,7H6.92a4,4,0,0,0-1.28-.21c-.79,0-.82.06-.87.12h0c-.09.2.17.4.17.4a1.52,1.52,0,0,0,.59.34h.14L6.48,8a2.84,2.84,0,0,1,.94.75l.24.34.28.41a.36.36,0,0,1,0,.25,2.2,2.2,0,0,1-.53.48c-.28.18-.89.56-1.34.86-.2.15-.87.6-1,.82a.2.2,0,0,0,0,.23c.12.14.44.11.68,0L6,12.05c.3-.08.66-.16.84-.22a.86.86,0,0,1,.45,0,1.55,1.55,0,0,0,.19.24l.36.42a6.62,6.62,0,0,0,1,.87,1.75,1.75,0,0,1,.47,1v.17a5.45,5.45,0,0,0,.56,2A13.21,13.21,0,0,0,11.07,18a11.22,11.22,0,0,0,1.57,1.34,12.81,12.81,0,0,1,1.54,1.21,17.11,17.11,0,0,0,1.48,1.22,6.12,6.12,0,0,1,.7.53l-.22.16c-.2.1-.6.27-.89.38s-.81.3-1.09.42a6.63,6.63,0,0,0-.79.43.75.75,0,0,1-.2.1l-1-.55a1.24,1.24,0,0,0-1-.19.34.34,0,0,0-.21.21c-.08.33.31.75.73,1a2.07,2.07,0,0,1,.58.44c0,.18-.1.65-.11.75v1.14a1,1,0,0,0,.46.87.91.91,0,0,0,.79,0,1.18,1.18,0,0,0,.47-.61.89.89,0,0,0,0-.23.61.61,0,0,0,.37.41.37.37,0,0,0,.34-.12,1.76,1.76,0,0,0,.4-.67l.13.07a4.55,4.55,0,0,0,.92.5l1.08.48a11.19,11.19,0,0,0,1.6.55l.16.07a.53.53,0,0,1,.15.34v.18a2.49,2.49,0,0,0,.61,1,1.87,1.87,0,0,0,.92.31h.33v-.08h0a.42.42,0,0,0,.27,0,.72.72,0,0,0,.41-.59,1.57,1.57,0,0,1,.81.33A11.23,11.23,0,0,1,24.64,32a15.2,15.2,0,0,0,1.62,2.2h.14l.09-.08c.07-.08.17-.19-.37-1.22-.21-.43-.75-1.45-1-1.87v-.11a2.21,2.21,0,0,1,1.22-.28h.34c1.46,0,1.53-.18,1.57-.29v-.16c-.16-.21-1-.31-1.42-.35-.78-.08-1.73-.21-2.17-.3a6.42,6.42,0,0,1-1.76-.82l-1.22-.87a1.52,1.52,0,0,1-.28-.68,4.12,4.12,0,0,1,.09-1.31c.1-.39.38-1.29.63-2A18.9,18.9,0,0,0,22.69,22a1.58,1.58,0,0,1,.16-.35l.31.06.52.12a9.3,9.3,0,0,1,1.37.49,7.81,7.81,0,0,1,1.32.76,8.3,8.3,0,0,1,1.08,1.29l.16.26c.36.53.93,1.41,1.4,2.1s1.4,2,1.85,2.57a6,6,0,0,0,1.3,1.31,2.69,2.69,0,0,0,1,.18H34a1.34,1.34,0,0,0,.62-.17,1,1,0,0,1,.3-.14c.24-.09.33-.54.36-.82A3.63,3.63,0,0,0,35,28.67ZM21.09,23.51c-.17.55-.46,1.42-.63,1.92a10.23,10.23,0,0,1-.56,1.21,1.13,1.13,0,0,1-.73.39,3,3,0,0,1-1.1-.22c-.34-.13-.95-.39-1.35-.58s-1-.54-1.41-.78a4,4,0,0,1-.85-.69.45.45,0,0,1,0-.42,1.72,1.72,0,0,1,.61-.37l1.21-.49A14.26,14.26,0,0,1,17.84,23a5.42,5.42,0,0,0,1.1-.42l.59-.48a1.75,1.75,0,0,1,.68-.31,3.28,3.28,0,0,1,.76.14c.23.07.44.23.44.35A5.15,5.15,0,0,1,21.09,23.51Z"/><path class="cls-4" d="M10.87,6.68h.2a4.35,4.35,0,0,1,1.21.42,9.27,9.27,0,0,1,1.3.74,9.26,9.26,0,0,1,1.07.9,5.75,5.75,0,0,0,1.22.78,10.59,10.59,0,0,0,1.84.48c.61.11,1.54.31,2.07.44a10.62,10.62,0,0,1,1.72.6c.44.19,1.22.62,1.8,1a4.11,4.11,0,0,0,1.47.56h.15v.26l2,1.84c.35.39.87.92,1.15,1.22l.19.15.82.71.36.28.62.51a2.44,2.44,0,0,1,.71.79.36.36,0,0,1,0,.4.41.41,0,0,1-.34.22,1.71,1.71,0,0,1,.21.26,1.24,1.24,0,0,1,.17.5.68.68,0,0,1-.3.54,1.09,1.09,0,0,1-.58.17h-.1l.06.14c.07.19.2.48.34.78a10.08,10.08,0,0,0,.88,1.44l1.06,1.43c.31.37.87,1.21,1.29,1.87a17,17,0,0,1,1,1.73c.15.31.21.41.32.6a3.18,3.18,0,0,0,.16.32,3.27,3.27,0,0,1,.17,1c0,.28-.12.73-.35.82a.89.89,0,0,0-.31.15,1.47,1.47,0,0,1-.62.17h-.9a2.93,2.93,0,0,1-1-.19,6,6,0,0,1-1.3-1.31c-.45-.56-1.22-1.7-1.85-2.57s-1-1.57-1.4-2.1l-.16-.26a7.78,7.78,0,0,0-1.08-1.29,8.13,8.13,0,0,0-1.31-.76,9.85,9.85,0,0,0-1.38-.49l-.52-.12-.31-.06a1.54,1.54,0,0,0-.15.35c-.08.31-.33,1.1-.59,1.81s-.53,1.61-.63,2a4.12,4.12,0,0,0-.09,1.31,1.52,1.52,0,0,0,.28.68l1.22.87a6.42,6.42,0,0,0,1.76.82c.44.09,1.39.22,2.17.3a2.7,2.7,0,0,1,1.42.35v.14c0,.11-.11.3-1.57.3h-.34a1.78,1.78,0,0,0-1.21.28c-.11.12,0,0,0,.11.25.42.79,1.44,1,1.87.53,1.09.43,1.22.36,1.22l-.08.08H26A15.2,15.2,0,0,1,24.42,32a11.44,11.44,0,0,0-2.22-2.58,1.74,1.74,0,0,0-.78-.33h0a.71.71,0,0,1-.42.59h-.09a.48.48,0,0,1-.17,0h0v.08h-.33a1.85,1.85,0,0,1-.93-.32,2.48,2.48,0,0,1-.6-1V28.3a.53.53,0,0,0-.15-.34l0,0a9.52,9.52,0,0,1-1.56-.61l-1.08-.47a4.55,4.55,0,0,1-.92-.5c-.08-.07-.12-.07-.13-.07a1.76,1.76,0,0,1-.4.67.32.32,0,0,1-.26.12h-.13a.68.68,0,0,1-.37-.41.88.88,0,0,1,0,.23,1.12,1.12,0,0,1-.47.6.73.73,0,0,1-.43.11.89.89,0,0,1-.36-.07,1,1,0,0,1-.46-.86V25.52a5.22,5.22,0,0,1,.11-.75,2.18,2.18,0,0,0-.57-.44c-.43-.24-.82-.65-.73-1a.32.32,0,0,1,.2-.22h.21a1.68,1.68,0,0,1,.78.23l1,.55a1.24,1.24,0,0,0,.2-.1,7.52,7.52,0,0,1,.79-.43c.28-.12.76-.3,1.09-.42a8.45,8.45,0,0,0,.89-.38l.22-.16a7,7,0,0,0-.69-.53,15.84,15.84,0,0,1-1.49-1.22,14,14,0,0,0-1.54-1.22A10.89,10.89,0,0,1,11.07,18a13.21,13.21,0,0,1-1.22-1.47,5.67,5.67,0,0,1-.68-1.91v-.17a1.71,1.71,0,0,0-.47-1,8.11,8.11,0,0,1-1-.88l-.31-.41a2.43,2.43,0,0,1-.2-.25H7.05a1.31,1.31,0,0,0-.28,0,7.12,7.12,0,0,0-.84.22l-.21.06H5.33a.4.4,0,0,1-.3-.09.26.26,0,0,1,0-.24,4.72,4.72,0,0,1,1-.81c.45-.31,1.06-.68,1.34-.86a2.07,2.07,0,0,0,.54-.48.36.36,0,0,0,0-.25l-.28-.42-.25-.34A2.8,2.8,0,0,0,6.4,8l-.82-.28H5.45a1.7,1.7,0,0,1-.6-.34S4.6,7.18,4.68,7h0s.09-.12.88-.12a3.67,3.67,0,0,1,1.27.2h.44A3.46,3.46,0,0,0,8.06,7a2.74,2.74,0,0,1,.73-.2L10,6.68h.91m8.17,20.38h.08a1.22,1.22,0,0,0,.73-.39,10.37,10.37,0,0,0,.56-1.22c.17-.5.46-1.36.63-1.92a4.62,4.62,0,0,0,.29-1.22c0-.12-.21-.28-.44-.35a2.75,2.75,0,0,0-.75-.13,1.55,1.55,0,0,0-.68.3l-.6.49a6,6,0,0,1-1.09.41c-.53.15-1.05.32-1.56.52L15,24a1.65,1.65,0,0,0-.6.38.38.38,0,0,0,0,.41,3.34,3.34,0,0,0,.85.69,14.14,14.14,0,0,0,1.41.78l1.35.59a3.21,3.21,0,0,0,1,.22M10.85,5.82h-1L8.65,6a4,4,0,0,0-.9.24h-.7a4.78,4.78,0,0,0-1.54-.25c-.69,0-1.29,0-1.64.55h0v.08a1.19,1.19,0,0,0,0,1A1.58,1.58,0,0,0,4.21,8a2.49,2.49,0,0,0,.92.53H5.3L6,8.8a2.27,2.27,0,0,1,.54.44l.17.23-1.22.81C4.46,11,4.32,11.33,4.26,11.5a1.12,1.12,0,0,0,.18,1.22,1.22,1.22,0,0,0,1,.41A2.57,2.57,0,0,0,6,13.05h.21l.68-.18h0l.22.27a8.24,8.24,0,0,0,1.11,1,1.57,1.57,0,0,1,.12.3v.24A6.64,6.64,0,0,0,9.13,17a14.56,14.56,0,0,0,1.22,1.59,12.12,12.12,0,0,0,1.73,1.47,12.59,12.59,0,0,1,1.41,1.22,13.6,13.6,0,0,0,1.07.92l-.81.32c-.15.07-.4.18-.63.31l-.54-.3a2.76,2.76,0,0,0-1.22-.34,1.38,1.38,0,0,0-.57.11,1.19,1.19,0,0,0-.71.79,1.93,1.93,0,0,0,1.15,2h0v1.5a1.86,1.86,0,0,0,1,1.7,1.79,1.79,0,0,0,1.63-.1,2,2,0,0,0,.36-.29h.12a1.32,1.32,0,0,0,.93-.4v-.06a3,3,0,0,0,.41.18l1,.45a8.64,8.64,0,0,0,1.4.5v.11A3.38,3.38,0,0,0,19,30.1a2.56,2.56,0,0,0,1.5.53h1.21v-.27l.17-.13a12.32,12.32,0,0,1,1.94,2.32c1.48,2.25,1.76,2.44,2,2.51H26l.56.18.4-.42.08-.09c.56-.58.27-1.32-.22-2.31-.14-.3-.32-.63-.48-1h.17c1.21,0,2.14,0,2.43-.9v-.69l-.19-.26h0c-.27-.34-.71-.58-2.07-.7-.73-.08-1.66-.2-2.06-.28a5.51,5.51,0,0,1-1.36-.71l-1.11-.75V27a3.94,3.94,0,0,1,.08-1c.07-.31.34-1.15.59-1.89.16-.43.36-1,.48-1.41h0a8.66,8.66,0,0,1,1.21.42,8.72,8.72,0,0,1,1.11.65,7.1,7.1,0,0,1,.89,1.08l.17.25.17.37c.36.53.83,1.22,1.21,1.85.59.87,1.44,2,1.89,2.63a6.91,6.91,0,0,0,1.63,1.56,3.55,3.55,0,0,0,1.36.27h1A2.22,2.22,0,0,0,35,31.47h.06A1.71,1.71,0,0,0,36,29.89v-.08a4,4,0,0,0-.24-1.38h0l-.14-.5v-.09l-.28-.54c-.17-.38-.76-1.31-1.06-1.8-.45-.71-1-1.54-1.34-1.93l-1.05-1.4a12.77,12.77,0,0,1-.77-1.28,1.66,1.66,0,0,0,.65-1.22v-.13a2,2,0,0,0-.11-.49,1.3,1.3,0,0,0,0-1.21,3.68,3.68,0,0,0-1-1.1l-.49-.4-.11-.08L29.75,16,29,15.3l-.19-.18c-.23-.2-.74-.72-1.07-1.09s-1-1-1.67-1.68l-.15-.73H25a4.61,4.61,0,0,1-1-.42c-.57-.34-1.42-.79-1.89-1a14.55,14.55,0,0,0-1.89-.65c-.53-.13-1.48-.33-2.13-.45a8.45,8.45,0,0,1-1.64-.44,4.3,4.3,0,0,1-1-.6,11.48,11.48,0,0,0-1.14-1,10,10,0,0,0-1.46-.84,5,5,0,0,0-1.61-.5Zm9.21,17a.77.77,0,0,1,.18-.1h.11a1.92,1.92,0,0,1-.15.51c-.17.56-.46,1.41-.63,1.9a8.39,8.39,0,0,1-.43,1h-.07a2.67,2.67,0,0,1-.68-.15c-.34-.13-.93-.39-1.3-.57a14.2,14.2,0,0,1-1.32-.73h0l.38-.16.45-.18a13.59,13.59,0,0,1,1.45-.49,6.09,6.09,0,0,0,1.34-.52h0c.13-.1.4-.3.6-.49Z"/><path class="cls-1" d="M26.48,5.65h0l.58,1.65L28.42,11a2,2,0,0,0-.84.13,1.73,1.73,0,0,0-1.25,2.07,1.91,1.91,0,0,0,3.53-1.26L28,6.77l3.86-2.46,1.26,3.53a2.2,2.2,0,0,0-.84.12A1.73,1.73,0,0,0,31,10a1.74,1.74,0,0,0,2.29.79,1.74,1.74,0,0,0,1.26-2.07h0l-1.79-5-.59-1.59-.1-.24Z"/><path class="cls-4" d="M32.08,1.91l.1.24.59,1.59,1.79,5a1.74,1.74,0,0,1-1.26,2.07,1.78,1.78,0,0,1-.74.17A1.74,1.74,0,0,1,31,10,1.73,1.73,0,0,1,32.27,8,2.36,2.36,0,0,1,33,7.83h.09L31.85,4.31,28,6.77l1.87,5.15a1.91,1.91,0,0,1-3.53,1.26,1.73,1.73,0,0,1,1.25-2.07,2.11,2.11,0,0,1,.74-.14h.1L27.06,7.3l-.58-1.65,5.6-3.74M32.44.76l-.78.52L26.06,5l-.48.33.19.54.58,1.66,1,2.83,0,0a2.48,2.48,0,0,0-1.75,2.95l0,.12.07.1A2.64,2.64,0,0,0,28,14.85a2.72,2.72,0,0,0,1.38-.39,2.69,2.69,0,0,0,1.26-2.65l0-.08,0-.07L28.9,7.08l2.56-1.63.64,1.78h0a2.51,2.51,0,0,0-1.79,3l0,.09,0,.08a2.47,2.47,0,0,0,2.22,1.37,2.63,2.63,0,0,0,1-.21,2.51,2.51,0,0,0,1.73-2.95v0l0,0-1.78-5-.6-1.6-.1-.26L32.44.76Z"/></g></g></svg>